<svg width="70" height="121" viewBox="0 0 70 121" fill="none" xmlns="http://www.w3.org/2000/svg">
<path d="M34.5622 120.282C53.6504 120.282 69.1244 119.024 69.1244 117.472C69.1244 115.921 53.6504 114.663 34.5622 114.663C15.474 114.663 0 115.921 0 117.472C0 119.024 15.474 120.282 34.5622 120.282Z" fill="url(#paint0_radial_739_113915)" fill-opacity="0.7"/>
<path d="M32.1358 0.442918C31.9979 0.374563 31.8531 0.30621 31.7083 0.251527L31.6945 0.24469C29.9019 -0.418347 27.8749 0.299374 26.9787 1.99456L18.0985 18.8712L14.4927 17.0052C13.4171 16.4515 12.121 16.8548 11.5694 17.9006L4.799 30.7581C4.24744 31.8107 4.65421 33.0958 5.72976 33.6494L9.33559 35.5155L0.441667 52.4059C-0.516671 54.2309 0.227934 56.5071 2.10324 57.4846C3.98545 58.4621 6.29511 57.7648 7.25345 55.9329L33.7904 5.51481C34.7626 3.68975 34.018 1.41355 32.1358 0.442918ZM8.99776 31.0588L14.1962 21.1748L16.2922 22.2548L11.0937 32.1388L8.99776 31.0588Z" fill="#87AAF0"/>
<path opacity="0.1" d="M31.7083 0.251527L31.6945 0.24469C29.9019 -0.418347 27.8749 0.299374 26.9787 1.99456L18.0985 18.8712L14.4927 17.0052C13.4171 16.4515 12.121 16.8548 11.5694 17.9006L4.799 30.7581C4.24744 31.8107 4.65421 33.0958 5.72976 33.6494L9.33559 35.5155L0.441667 52.4059C-0.516671 54.2309 0.227934 56.5071 2.10324 57.4846L32.1289 0.436083L31.7083 0.251527Z" fill="white"/>
<path d="M44.1112 12.9177L37.5614 19.4113L38.4164 24.2098L15.8782 46.5548C15.1474 47.2794 15.1474 48.4619 15.8782 49.1865L35.6034 68.7426C36.4859 69.6176 37.9131 69.6176 38.7887 68.7426L69.3383 38.4549C70.2208 37.5799 70.2208 36.165 69.3383 35.2969L48.2824 14.4215L46.7656 12.9177C46.0348 12.1863 44.842 12.1863 44.1112 12.9177Z" fill="#E0872F"/>
<path d="M36.6792 66.9873L67.563 36.3682L48.3697 17.3393L17.4858 47.9585L36.6792 66.9873Z" fill="#E6E7E8"/>
<path d="M18.5947 51.8862L35.5966 68.7424C36.4791 69.6173 37.9063 69.6173 38.7819 68.7424L69.3315 38.4546C70.214 37.5796 70.214 36.1647 69.3315 35.2966L52.3296 18.4404L18.5947 51.8862Z" fill="url(#paint1_linear_739_113915)"/>
<path opacity="0.15" d="M50.3907 19.3398L19.5068 49.959L20.0236 50.4713L50.9074 19.8522L50.3907 19.3398Z" fill="#497FE9"/>
<path d="M65.0771 60.0681L56.4521 115.408C56.266 116.611 55.2387 117.465 54.0115 117.465H15.0919C13.8854 117.465 12.8443 116.604 12.6513 115.408L4.05379 60.0681C3.80559 58.5849 4.97766 57.2383 6.49445 57.2383H62.6296C64.1464 57.2383 65.2978 58.5917 65.0771 60.0681Z" fill="#87AAF0"/>
<path d="M51.219 111.627H47.627L53.439 63.0957H58.6306L51.219 111.627Z" fill="#497FE9"/>
<path d="M43.7869 111.627H40.1948L42.7044 63.0957H47.896L43.7869 111.627Z" fill="#497FE9"/>
<path d="M36.3616 111.627H32.7627L31.9629 63.0957H37.1613L36.3616 111.627Z" fill="#497FE9"/>
<path d="M28.9292 111.627H25.3372L21.228 63.0957H26.4196L28.9292 111.627Z" fill="#497FE9"/>
<path d="M21.4969 111.627H17.9048L10.4863 63.0957H15.6848L21.4969 111.627Z" fill="#497FE9"/>
<path opacity="0.1" d="M34.562 57.2383V117.472H15.0919C13.8854 117.472 12.8443 116.611 12.6513 115.415L4.05379 60.075C3.80559 58.5917 4.97766 57.2451 6.49445 57.2451H34.562V57.2383Z" fill="white"/>
<defs>
<radialGradient id="paint0_radial_739_113915" cx="0" cy="0" r="1" gradientUnits="userSpaceOnUse" gradientTransform="translate(34.5622 117.472) rotate(90) scale(2.80937 34.5622)">
<stop stop-color="#154196"/>
<stop offset="1" stop-color="#6793E8"/>
</radialGradient>
<linearGradient id="paint1_linear_739_113915" x1="35.7018" y1="35.3959" x2="53.7476" y2="53.5976" gradientUnits="userSpaceOnUse">
<stop stop-color="#F9B76E"/>
<stop offset="1" stop-color="#EAAA6A"/>
</linearGradient>
</defs>
</svg>
